# xmcd
#
# Track frame offsets: 
#        150
#        16017
#        35228
#        54022
#        66879
#        85967
#        108260
#        127766
#        145651
#        165391
#        167924
#        187153
#        204956
#        238447
#        263522
#        294144
#        318616
#
# Disc length: 4545 seconds
#
# Revision: 0
# Processed by: cddbd v1.5.2PL0 Copyright (c) Steve Scherf et al.
# Submitted via: ExactAudioCopy v0.99pb5
#
DISCID=e411bf11
DTITLE=Low Country Collection - Caught In The Act
DYEAR=1900
DGENRE=Folk/Rock
TTITLE0=Peaceful Easy Feeling
TTITLE1=Everyday
TTITLE2=Have You Ever Seen The Rain
TTITLE3=Your Mama Don't Dance
TTITLE4=Lay Down Sally
TTITLE5=Leather and Lace
TTITLE6=Chasing Rainbows
TTITLE7=Soul Shake
TTITLE8=Carolina In My Mind
TTITLE9=Introduction to...
TTITLE10=House At Pooh Corner
TTITLE11=Dixieland Delight
TTITLE12=The Weight
TTITLE13=Angel From Montgomery
TTITLE14=Feeling Alright
TTITLE15=Driftaway
TTITLE16=Landslide
EXTD=
EXTT0=
EXTT1=
EXTT2=
EXTT3=
EXTT4=
EXTT5=
EXTT6=
EXTT7=
EXTT8=
EXTT9=
EXTT10=
EXTT11=
EXTT12=
EXTT13=
EXTT14=
EXTT15=
EXTT16=
PLAYORDER=
